<svg width="32" height="32" viewBox="0 0 32 32" fill="none" xmlns="http://www.w3.org/2000/svg">
<g clip-path="url(#clip0_844_3420)">
<path d="M30.4799 22.0898H15.2399V20.5698H13.7199V28.1898H12.1899V31.2398H30.4799V29.7098H31.9999V20.5698H30.4799V22.0898ZM18.2899 28.1898H16.7599V23.6198H18.2899V28.1898ZM22.8599 26.6698H21.3399V23.6198H22.8599V26.6698ZM25.9099 26.6698H24.3799V23.6198H25.9099V26.6698ZM28.9499 28.1898H27.4299V23.6198H28.9499V28.1898Z" fill="#F4F7FA"/>
<path d="M30.4801 19.0498H27.4301V20.5698H30.4801V19.0498Z" fill="#F4F7FA"/>
<path d="M27.43 17.5195H25.91V19.0495H27.43V17.5195Z" fill="#F4F7FA"/>
<path d="M27.43 6.85986H25.91V11.4299H27.43V6.85986Z" fill="#F4F7FA"/>
<path d="M25.91 11.4297H24.38V17.5197H25.91V11.4297Z" fill="#F4F7FA"/>
<path d="M24.38 8.37988H21.34V11.4299H24.38V8.37988Z" fill="#F4F7FA"/>
<path d="M21.3401 11.4297H19.8101V17.5197H21.3401V11.4297Z" fill="#F4F7FA"/>
<path d="M25.9101 6.85957V5.32957H21.3401V3.80957H19.8101V6.85957H25.9101Z" fill="#F4F7FA"/>
<path d="M19.81 17.5195H18.29V19.0495H19.81V17.5195Z" fill="#F4F7FA"/>
<path d="M19.81 6.85986H18.29V9.89986H16.76V11.4299H19.81V6.85986Z" fill="#F4F7FA"/>
<path d="M18.29 19.0498H15.24V20.5698H18.29V19.0498Z" fill="#F4F7FA"/>
<path d="M15.24 5.32957V3.80957H6.10005V5.32957H3.05005V6.85957H4.57005V8.37957H6.10005V9.89957H15.24V8.37957H16.76V6.85957H18.29V5.32957H15.24Z" fill="#F4F7FA"/>
<path d="M19.81 2.28955H16.76V3.80955H19.81V2.28955Z" fill="#F4F7FA"/>
<path d="M4.56995 11.4297V12.9497H13.7199V14.4797H15.2399V12.9497H16.7599V11.4297H4.56995Z" fill="#F4F7FA"/>
<path d="M13.72 14.48H10.67V16H13.72V14.48Z" fill="#F4F7FA"/>
<path d="M10.67 16H7.62V17.52H10.67V16Z" fill="#F4F7FA"/>
<path d="M16.7599 0.759766H4.56995V2.28977H16.7599V0.759766Z" fill="#F4F7FA"/>
<path d="M12.1899 25.1396H4.56995V26.6696H12.1899V25.1396Z" fill="#F4F7FA"/>
<path d="M7.62005 17.5195H3.05005V19.0495H7.62005V17.5195Z" fill="#F4F7FA"/>
<path d="M4.57005 23.6196H3.05005V25.1396H4.57005V23.6196Z" fill="#F4F7FA"/>
<path d="M4.57005 9.8999H3.05005V11.4299H4.57005V9.8999Z" fill="#F4F7FA"/>
<path d="M4.57003 2.28955H1.53003V3.80955H4.57003V2.28955Z" fill="#F4F7FA"/>
<path d="M3.05003 22.0898H1.53003V23.6198H3.05003V22.0898Z" fill="#F4F7FA"/>
<path d="M1.53 15.9996V9.89957H3.05V8.37957H1.53V3.80957H0V22.0896H1.53V17.5196H3.05V15.9996H1.53Z" fill="#F4F7FA"/>
</g>
<defs>
<clipPath id="clip0_844_3420">
<rect width="32" height="32" fill="white"/>
</clipPath>
</defs>
</svg>
