<svg width="38" height="38" viewBox="0 0 38 38" fill="none" xmlns="http://www.w3.org/2000/svg">
  <g clip-path="url(#clip0_365_5447)">
    <path
      d="M36.195 10.8538H34.3781V7.23188H32.5731V5.42688H30.7563V3.62188H27.1463V1.805H23.5244V0H14.4756V1.805H10.8538V3.62188H7.23188V5.42688H5.42688V7.23188H3.62188V10.8538H1.805V14.4756H0V23.5244H1.805V27.1463H3.62188V30.7563H5.42688V32.5731H7.23188V34.3781H10.8538V36.195H14.4756V38H23.5244V36.195H27.1463V34.3781H30.7563V32.5731H32.5731V30.7563H34.3781V27.1463H36.195V23.5244H38V14.4756H36.195V10.8538ZM14.4756 7.23188H16.2806V5.42688H21.7194V7.23188H23.5244V12.6706H21.7194V14.4756H16.2806V12.6706H14.4756V7.23188ZM27.1463 30.7563H25.3294V32.5731H16.2806V30.7563H14.4756V18.0975H16.2806V16.2806H21.7194V18.0975H23.5244V27.1463H25.3294V28.9512H27.1463V30.7563Z"
      fill="#F2FF56"
    />
  </g>
  <defs>
    <clipPath id="clip0_365_5447">
      <rect width="38" height="38" fill="white" />
    </clipPath>
  </defs>
</svg>
