<svg width="32" height="32" viewBox="0 0 32 32" fill="none" xmlns="http://www.w3.org/2000/svg">
<g clip-path="url(#clip0_844_3446)">
<path d="M32 1.52002H30.48V4.57002H32V1.52002Z" fill="#F4F7FA"/>
<path d="M30.4799 4.56982H28.95V6.08982H30.4799V4.56982Z" fill="#F4F7FA"/>
<path d="M30.4801 0H27.4301V1.52H30.4801V0Z" fill="#F4F7FA"/>
<path d="M28.9501 6.08984H27.4301V7.61984H28.9501V6.08984Z" fill="#F4F7FA"/>
<path d="M27.43 7.62012H25.91V10.6601H27.43V7.62012Z" fill="#F4F7FA"/>
<path d="M27.43 1.52002H25.91V3.05002H27.43V1.52002Z" fill="#F4F7FA"/>
<path d="M25.91 10.6602H24.38V12.1902H25.91V10.6602Z" fill="#F4F7FA"/>
<path d="M25.91 3.0498H24.38V4.5698H25.91V3.0498Z" fill="#F4F7FA"/>
<path d="M24.38 12.1899H22.86V13.7099H24.38V12.1899Z" fill="#F4F7FA"/>
<path d="M24.38 4.56982H21.34V6.08982H24.38V4.56982Z" fill="#F4F7FA"/>
<path d="M22.86 13.71H21.34V15.24H22.86V13.71Z" fill="#F4F7FA"/>
<path d="M21.3401 15.2402H19.8101V16.7602H21.3401V15.2402Z" fill="#F4F7FA"/>
<path d="M21.3401 6.08984H19.8101V7.61984H21.3401V6.08984Z" fill="#F4F7FA"/>
<path d="M19.81 16.7598H18.29V18.2798H19.81V16.7598Z" fill="#F4F7FA"/>
<path d="M19.81 7.62012H18.29V9.14012H19.81V7.62012Z" fill="#F4F7FA"/>
<path d="M18.29 18.2798H16.76V19.8098H18.29V18.2798Z" fill="#F4F7FA"/>
<path d="M18.29 9.14014H16.76V10.6601H18.29V9.14014Z" fill="#F4F7FA"/>
<path d="M16.76 10.6602H15.24V12.1902H16.76V10.6602Z" fill="#F4F7FA"/>
<path d="M15.2399 18.2802H13.7199V16.7602H12.1899V15.2402H10.6699V16.7602H9.14995V18.2802H4.56995V19.8102H10.6699V21.3302H12.1899V27.4302H13.7199V22.8502H15.2399V21.3302H16.7599V19.8102H15.2399V18.2802Z" fill="#F4F7FA"/>
<path d="M15.24 12.1899H13.72V13.7099H15.24V12.1899Z" fill="#F4F7FA"/>
<path d="M13.7199 13.71H12.1899V15.24H13.7199V13.71Z" fill="#F4F7FA"/>
<path d="M10.6699 28.9502H4.56995V30.4702H12.1899V27.4302H10.6699V28.9502Z" fill="#F4F7FA"/>
<path d="M6.09998 21.3301V25.9001H10.67V21.3301H6.09998ZM9.14998 24.3801H7.61998V22.8501H9.14998V24.3801Z" fill="#F4F7FA"/>
<path d="M6.09995 25.8999H4.56995V27.4299H6.09995V25.8999Z" fill="#F4F7FA"/>
<path d="M4.57005 27.4302H3.05005V28.9502H4.57005V27.4302Z" fill="#F4F7FA"/>
<path d="M3.05 28.9502H1.53V27.4302H0V32.0002H4.57V30.4702H3.05V28.9502Z" fill="#F4F7FA"/>
<path d="M3.05003 21.3301H4.57003V19.8101H1.53003V27.4301H3.05003V21.3301Z" fill="#F4F7FA"/>
</g>
<defs>
<clipPath id="clip0_844_3446">
<rect width="32" height="32" fill="white"/>
</clipPath>
</defs>
</svg>
