<svg width="48" height="48" viewBox="0 0 48 48" fill="none" xmlns="http://www.w3.org/2000/svg">
<g clip-path="url(#clip0_835_553)">
<path d="M45.72 13.71H43.425V9.135H41.145V6.855H38.865V4.575H34.29V2.28H29.715V0H18.285V2.28H13.71V4.575H9.15V6.855H6.855V9.135H4.575V13.71H2.28V18.285H0V29.715H2.28V34.29H4.575V38.85H6.855V41.145H9.15V43.425H13.71V45.72H18.285V48H29.715V45.72H34.29V43.425H38.865V41.145H41.145V38.85H43.425V34.29H45.72V29.715H48V18.285H45.72V13.71ZM38.865 22.86H36.57V25.14H34.29V27.435H31.995V29.715H29.715V31.995H27.435V27.435H18.285V29.715H16.005V31.995H18.285V34.29H20.565V36.57H13.71V34.29H11.43V31.995H9.15V20.565H11.43V18.285H13.71V16.005H27.435V11.43H29.715V13.71H31.995V16.005H34.29V18.285H36.57V20.565H38.865V22.86Z" fill="#F2FF56"/>
</g>
<defs>
<clipPath id="clip0_835_553">
<rect width="48" height="48" fill="white"/>
</clipPath>
</defs>
</svg>
