<svg width="32" height="32" viewBox="0 0 32 32" fill="none" xmlns="http://www.w3.org/2000/svg">
<path d="M32 9.90503H30.47V22.095H32V9.90503Z" fill="#000001"/>
<path d="M30.4699 22.0951H28.95V23.6151H30.4699V22.0951Z" fill="#000001"/>
<path d="M30.4699 8.375H28.95V9.905H30.4699V8.375Z" fill="#000001"/>
<path d="M28.9501 23.615H27.4301V25.135H28.9501V23.615Z" fill="#000001"/>
<path d="M28.9501 12.9451H27.4301V19.0451H28.9501V12.9451Z" fill="#000001"/>
<path d="M28.9501 6.85498H27.4301V8.37498H28.9501V6.85498Z" fill="#000001"/>
<path d="M27.43 19.045H25.9V20.565H27.43V19.045Z" fill="#000001"/>
<path d="M27.43 11.425H25.9V12.945H27.43V11.425Z" fill="#000001"/>
<path d="M25.9 14.475H24.38V17.525H25.9V14.475Z" fill="#000001"/>
<path d="M22.85 5.33508H21.33V26.6651H22.85V5.33508Z" fill="#000001"/>
<path d="M21.3301 26.665H19.8101V28.185H21.3301V26.665Z" fill="#000001"/>
<path d="M21.3301 3.80505H19.8101V5.33505H21.3301V3.80505Z" fill="#000001"/>
<path d="M19.81 28.1851H15.24V29.7151H19.81V28.1851Z" fill="#000001"/>
<path d="M18.28 22.0951H16.76V23.6151H18.28V22.0951Z" fill="#000001"/>
<path d="M18.28 8.375H16.76V9.905H18.28V8.375Z" fill="#000001"/>
<path d="M19.81 2.28503H15.24V3.80503H19.81V2.28503Z" fill="#000001"/>
<path d="M16.76 9.90503H15.24V22.095H16.76V9.90503Z" fill="#000001"/>
<path d="M15.24 26.665H13.71V28.185H15.24V26.665Z" fill="#000001"/>
<path d="M15.24 3.80505H13.71V5.33505H15.24V3.80505Z" fill="#000001"/>
<path d="M13.7099 25.135H12.1899V26.665H13.7099V25.135Z" fill="#000001"/>
<path d="M13.7099 5.33508H12.1899V6.85508H13.7099V5.33508Z" fill="#000001"/>
<path d="M12.19 23.615H10.66V25.135H12.19V23.615Z" fill="#000001"/>
<path d="M12.19 6.85498H10.66V8.37498H12.19V6.85498Z" fill="#000001"/>
<path d="M10.66 22.0951H9.14001V23.6151H10.66V22.0951Z" fill="#000001"/>
<path d="M10.66 8.375H9.14001V9.905H10.66V8.375Z" fill="#000001"/>
<path d="M9.14 20.5651H7.62V22.0951H9.14V20.5651Z" fill="#000001"/>
<path d="M9.14 9.90503H7.62V11.425H9.14V9.90503Z" fill="#000001"/>
<path d="M7.62 11.425H1.52V12.945H0V19.045H1.52V20.565H7.62V11.425ZM4.57 14.475H3.05V17.525H1.52V14.475H3.05V12.945H4.57V14.475Z" fill="#000001"/>
</svg>
